<svg xmlns="http://www.w3.org/2000/svg" xmlns:xlink="http://www.w3.org/1999/xlink" width="500" zoomAndPan="magnify" viewBox="0 0 375 374.999991" height="500" preserveAspectRatio="xMidYMid meet" version="1.0"><defs><clipPath id="440204be4e"><path d="M 330 266 L 334.382812 266 L 334.382812 271 L 330 271 Z M 330 266 " clip-rule="nonzero"/></clipPath></defs><path fill="#312f30" d="M 104.90625 318.484375 C 101.511719 314.992188 95.574219 309.234375 93.132812 307.691406 C 93.003906 307.621094 92.804688 307.566406 92.65625 307.566406 C 92.695312 309.222656 108.121094 324.183594 109.847656 324.242188 C 109.804688 323.640625 107.136719 320.78125 104.90625 318.484375 " fill-opacity="1" fill-rule="nonzero"/><path fill="#312f30" d="M 124.9375 332.976562 C 121.371094 329.929688 114.910156 324.941406 111.71875 323.703125 C 111.484375 323.640625 111.128906 323.542969 111.007812 323.65625 C 110.390625 324.210938 114.441406 328.035156 118.613281 331.253906 C 123.960938 335.382812 128.835938 338.382812 129.714844 338.085938 C 130 337.4375 126.84375 334.609375 124.9375 332.976562 " fill-opacity="1" fill-rule="nonzero"/><path fill="#312f30" d="M 58.265625 254.996094 C 58.1875 254.917969 58.046875 254.835938 57.9375 254.835938 C 57.90625 257 68.210938 276.738281 69.421875 276.828125 C 69.4375 275.953125 67.378906 271.636719 66.148438 269.136719 C 64.003906 264.773438 59.964844 257.078125 58.265625 254.996094 " fill-opacity="1" fill-rule="nonzero"/><path fill="#312f30" d="M 71.089844 276.175781 C 70.875 276.070312 70.609375 275.945312 70.476562 276.082031 C 69.136719 277.449219 81.234375 295.355469 84.101562 296.25 C 85.210938 296.597656 84.003906 293.625 81.164062 289.023438 C 78.515625 284.71875 73.636719 277.886719 71.089844 276.175781 " fill-opacity="1" fill-rule="nonzero"/><path fill="#312f30" d="M 99.253906 306.769531 C 96.328125 302.855469 90.679688 296.714844 87.292969 295.324219 C 87.011719 295.253906 86.625 295.15625 86.40625 295.304688 C 84.074219 296.921875 97.710938 312.902344 101.925781 313.496094 C 103.480469 313.714844 102.378906 310.949219 99.253906 306.769531 " fill-opacity="1" fill-rule="nonzero"/><path fill="#312f30" d="M 49.179688 231.980469 C 49.3125 232.40625 49.519531 233.03125 49.78125 233.792969 C 49.574219 233.175781 49.363281 232.554688 49.175781 231.96875 L 49.179688 231.980469 " fill-opacity="1" fill-rule="nonzero"/><path fill="#312f30" d="M 64.183594 262.289062 C 65.804688 263.203125 65.519531 259.558594 63.523438 253.800781 C 61.800781 248.832031 58.21875 241.007812 55.648438 239.175781 C 55.496094 239.109375 55.277344 239.003906 55.117188 239.035156 C 52.4375 239.546875 60.488281 260.191406 64.183594 262.289062 " fill-opacity="1" fill-rule="nonzero"/><path fill="#312f30" d="M 79.242188 282.546875 C 81.457031 283.28125 81.296875 279.792969 78.871094 274.433594 C 76.773438 269.796875 72.226562 262.578125 68.6875 261.046875 C 68.382812 260.976562 67.964844 260.878906 67.652344 261.074219 C 64.558594 263.019531 74.195312 280.882812 79.242188 282.546875 " fill-opacity="1" fill-rule="nonzero"/><path fill="#312f30" d="M 96.925781 300.582031 C 100.152344 301.644531 100.402344 298.242188 97.484375 293.003906 C 94.722656 288.050781 89.277344 282.039062 85.292969 280.964844 C 84.90625 280.921875 84.378906 280.859375 83.972656 281.074219 C 80.160156 283.089844 90.332031 298.402344 96.925781 300.582031 " fill-opacity="1" fill-rule="nonzero"/><path fill="#312f30" d="M 46.578125 215.703125 C 46.492188 215.628906 46.367188 215.539062 46.257812 215.507812 C 44.640625 216.515625 50.984375 239.667969 53.042969 240.28125 C 53.859375 239.769531 52.359375 233.253906 51.882812 231.269531 C 50.707031 226.402344 48.226562 217.875 46.578125 215.703125 " fill-opacity="1" fill-rule="nonzero"/><path fill="#312f30" d="M 62.800781 245.988281 C 65.410156 247.433594 66.359375 243.265625 64.917969 236.695312 C 63.769531 231.46875 60.585938 223.394531 57.09375 221.8125 C 56.863281 221.761719 56.535156 221.691406 56.300781 221.746094 C 51.8125 222.730469 57.21875 242.894531 62.800781 245.988281 " fill-opacity="1" fill-rule="nonzero"/><path fill="#312f30" d="M 77.488281 266.746094 C 81.214844 268.644531 82.683594 264.546875 80.628906 257.976562 C 79.074219 252.996094 74.84375 245.410156 70.308594 244.121094 C 70.007812 244.089844 69.589844 244.050781 69.292969 244.121094 C 63.980469 245.382812 70.414062 263.144531 77.488281 266.746094 " fill-opacity="1" fill-rule="nonzero"/><path fill="#312f30" d="M 95.269531 285.476562 C 100.175781 287.738281 102.230469 283.8125 99.582031 277.238281 C 97.707031 272.582031 92.667969 265.617188 87.335938 264.699219 C 86.847656 264.6875 86.179688 264.667969 85.585938 264.949219 C 80.613281 267.308594 87.488281 281.886719 95.269531 285.476562 " fill-opacity="1" fill-rule="nonzero"/><path fill="#312f30" d="M 51.363281 223.199219 C 53.207031 224.84375 54.050781 220.734375 53.238281 214.03125 C 52.605469 208.796875 50.613281 200.605469 48.167969 198.777344 C 48.003906 198.710938 47.769531 198.617188 47.59375 198.648438 C 44.273438 199.246094 47.40625 219.664062 51.363281 223.199219 " fill-opacity="1" fill-rule="nonzero"/><path fill="#312f30" d="M 70.371094 218.214844 C 69.796875 212.949219 67.015625 204.949219 62.632812 203.660156 C 62.320312 203.628906 61.890625 203.597656 61.585938 203.667969 C 56.167969 204.9375 58.445312 222.789062 64.632812 227.542969 C 68.421875 230.453125 71.210938 225.921875 70.371094 218.214844 " fill-opacity="1" fill-rule="nonzero"/><path fill="#312f30" d="M 86.140625 239.570312 C 85.089844 234.308594 81.226562 226.464844 75.917969 225.5 C 75.535156 225.492188 75.015625 225.488281 74.648438 225.582031 C 68.484375 227.171875 71.734375 243.605469 79.222656 248.722656 C 84.328125 252.210938 87.753906 247.675781 86.140625 239.570312 " fill-opacity="1" fill-rule="nonzero"/><path fill="#312f30" d="M 105.054688 259.421875 C 103.652344 254.40625 98.960938 247.058594 92.921875 246.433594 C 92.492188 246.449219 91.914062 246.480469 91.5 246.597656 C 84.742188 248.53125 89.171875 264.109375 97.742188 268.527344 C 103.554688 271.527344 107.175781 267.019531 105.054688 259.421875 " fill-opacity="1" fill-rule="nonzero"/><path fill="#312f30" d="M 53.929688 205.394531 C 56.546875 207.648438 58.75 203.3125 58.644531 196.113281 C 58.570312 190.875 56.984375 182.804688 53.703125 181.265625 C 53.464844 181.214844 53.128906 181.15625 52.890625 181.207031 C 48.210938 182.179688 49.027344 201.167969 53.929688 205.394531 " fill-opacity="1" fill-rule="nonzero"/><path fill="#312f30" d="M 79.425781 198.929688 C 79.320312 193.640625 76.902344 185.769531 71.855469 184.820312 C 71.664062 184.816406 71.410156 184.796875 71.21875 184.808594 C 64.515625 185.289062 63.765625 201.398438 70.148438 207.789062 C 74.742188 212.390625 79.597656 207.753906 79.425781 198.929688 " fill-opacity="1" fill-rule="nonzero"/><path fill="#312f30" d="M 94.835938 219.660156 C 94.269531 214.351562 90.824219 206.585938 84.941406 205.949219 C 84.722656 205.957031 84.429688 205.953125 84.210938 205.980469 C 76.628906 206.886719 77.238281 223.121094 85.078125 229.140625 C 90.667969 233.429688 95.777344 228.46875 94.835938 219.660156 " fill-opacity="1" fill-rule="nonzero"/><path fill="#312f30" d="M 113.5 239.609375 C 112.523438 234.3125 108.179688 226.707031 101.585938 226.386719 C 101.339844 226.410156 101.011719 226.421875 100.769531 226.460938 C 92.984375 227.691406 94.117188 242.765625 102.457031 248.859375 C 109.207031 253.792969 115.191406 248.777344 113.5 239.609375 " fill-opacity="1" fill-rule="nonzero"/><path fill="#312f30" d="M 59.746094 186.421875 C 63.078125 190.273438 67.105469 185.816406 67.726562 177.585938 C 68.121094 172.371094 66.855469 164.476562 62.808594 163.242188 C 62.65625 163.230469 62.449219 163.195312 62.296875 163.199219 C 56.671875 163.292969 54.765625 180.65625 59.746094 186.421875 " fill-opacity="1" fill-rule="nonzero"/><path fill="#312f30" d="M 79.316406 188.171875 C 84.050781 193.542969 90.429688 188.695312 90.886719 179.378906 C 91.144531 174.113281 89.050781 166.414062 83.582031 165.792969 C 75.390625 166.144531 73.679688 181.78125 79.316406 188.171875 " fill-opacity="1" fill-rule="nonzero"/><path fill="#312f30" d="M 105.964844 199.394531 C 105.765625 194.070312 102.65625 186.429688 96.355469 186.097656 C 87.148438 186.902344 86.769531 202.742188 93.761719 208.867188 C 99.582031 213.972656 106.3125 208.746094 105.964844 199.394531 " fill-opacity="1" fill-rule="nonzero"/><path fill="#312f30" d="M 110.675781 228.15625 C 117.644531 234.167969 125.398438 228.820312 124.269531 218.78125 C 123.671875 213.4375 119.671875 205.898438 112.65625 205.875 C 103.109375 207.054688 103.171875 221.6875 110.675781 228.15625 " fill-opacity="1" fill-rule="nonzero"/><path fill="#312f30" d="M 79.484375 158.90625 C 80.238281 153.742188 79.25 146.066406 74.695312 145.167969 C 67.441406 145.074219 64.472656 161.828125 69.144531 167.648438 C 72.804688 172.207031 78.214844 167.632812 79.484375 158.90625 " fill-opacity="1" fill-rule="nonzero"/><path fill="#312f30" d="M 138.621094 317.152344 C 144.335938 318.601562 146.601562 314.992188 143.472656 309.425781 C 141.253906 305.484375 135.3125 299.839844 129.035156 299.621094 C 128.179688 299.683594 127.296875 299.75 126.4375 300.351562 C 121.585938 303.734375 129.667969 314.886719 138.621094 317.152344 " fill-opacity="1" fill-rule="nonzero"/><path fill="#312f30" d="M 149.058594 293.136719 C 147.28125 288.789062 141.636719 282.683594 134.652344 282.726562 C 134.003906 282.804688 133.117188 282.90625 132.285156 283.300781 C 125.910156 286.320312 130.929688 297.929688 140.1875 301.566406 C 147.316406 304.371094 151.878906 300.039062 149.058594 293.136719 " fill-opacity="1" fill-rule="nonzero"/><path fill="#312f30" d="M 157.5 274.714844 C 156.101562 269.976562 150.71875 263.445312 143.132812 263.761719 C 142.855469 263.804688 142.484375 263.84375 142.207031 263.902344 C 133.855469 265.667969 135.390625 278.078125 144.625 283.425781 C 152.808594 288.164062 160.027344 283.277344 157.5 274.714844 " fill-opacity="1" fill-rule="nonzero"/><path fill="#312f30" d="M 153.984375 242.820312 C 153.691406 242.875 153.289062 242.929688 152.996094 243 C 143.976562 245.183594 144.488281 258.636719 153.800781 264.171875 C 161.996094 269.046875 170.257812 263.394531 168.292969 254.265625 C 167.195312 249.167969 162.03125 242.246094 153.984375 242.820312 " fill-opacity="1" fill-rule="nonzero"/><path fill="#312f30" d="M 139.996094 330.28125 C 143.910156 330.789062 144.394531 327.828125 141.09375 323.53125 C 138.394531 320.011719 132.128906 314.847656 126.65625 314.371094 C 125.925781 314.390625 125.171875 314.410156 124.542969 314.894531 C 120.675781 317.886719 132.082031 329.25 139.996094 330.28125 " fill-opacity="1" fill-rule="nonzero"/><path fill="#312f30" d="M 144.273438 341.042969 C 146.457031 340.992188 145.613281 338.742188 142.171875 335.445312 C 139.171875 332.566406 132.605469 327.722656 127.773438 326.988281 C 127.171875 326.960938 126.550781 326.933594 126.167969 327.304688 C 123.621094 329.75 138.683594 341.179688 144.273438 341.042969 " fill-opacity="1" fill-rule="nonzero"/><path fill="#312f30" d="M 117.855469 286.339844 C 125.230469 289.964844 130.035156 285.179688 127.207031 277.03125 C 125.433594 271.929688 119.710938 264.609375 112.527344 264.3125 C 112.019531 264.355469 111.332031 264.417969 110.84375 264.566406 C 103.273438 266.835938 107.996094 281.488281 117.855469 286.339844 " fill-opacity="1" fill-rule="nonzero"/><path fill="#312f30" d="M 116.527344 302.933594 C 122.332031 304.914062 124.738281 300.753906 121.574219 294.207031 C 119.3125 289.527344 113.238281 282.660156 106.820312 282.058594 C 106.234375 282.078125 105.433594 282.101562 104.722656 282.433594 C 98.625 285.28125 106.898438 299.648438 116.527344 302.933594 " fill-opacity="1" fill-rule="nonzero"/><path fill="#312f30" d="M 51.839844 173.839844 C 52.3125 168.238281 51.886719 159.507812 49.457031 157.640625 C 49.277344 157.570312 49.011719 157.484375 48.820312 157.519531 C 44.710938 158.230469 43.542969 180.082031 47.410156 183.789062 C 49.242188 185.546875 51.230469 181.082031 51.839844 173.839844 " fill-opacity="1" fill-rule="nonzero"/><path fill="#312f30" d="M 43.691406 174.394531 C 43.585938 174.308594 43.429688 174.179688 43.296875 174.195312 C 40.828125 174.464844 41.945312 198.242188 44.554688 200.972656 C 45.65625 202.128906 46.386719 197.894531 46.25 191.121094 C 46.132812 185.480469 45.265625 176.558594 43.691406 174.394531 " fill-opacity="1" fill-rule="nonzero"/><path fill="#312f30" d="M 134.855469 257.773438 C 133.613281 252.707031 128.628906 245.582031 121.4375 245.589844 C 120.917969 245.652344 120.21875 245.746094 119.71875 245.910156 C 112.132812 248.417969 114.417969 261.875 123.320312 267.082031 C 130.710938 271.410156 136.964844 266.363281 134.855469 257.773438 " fill-opacity="1" fill-rule="nonzero"/><path fill="#312f30" d="M 131.570312 246.460938 C 139.320312 251.984375 147.375 246.363281 145.699219 236.609375 C 144.785156 231.273438 140.070312 223.890625 132.453125 224.175781 C 132.167969 224.222656 131.789062 224.261719 131.511719 224.324219 C 122.867188 226.21875 122.90625 240.285156 131.570312 246.460938 " fill-opacity="1" fill-rule="nonzero"/><path fill="#312f30" d="M 117.636719 316.386719 C 121.355469 317.171875 121.769531 314 118.578125 309.171875 C 115.996094 305.257812 110.0625 299.378906 104.960938 298.558594 C 104.28125 298.53125 103.582031 298.507812 103.003906 298.984375 C 99.523438 301.863281 110.464844 314.871094 117.636719 316.386719 " fill-opacity="1" fill-rule="nonzero"/><path fill="#312f30" d="M 122.136719 328.292969 C 124.074219 328.371094 123.128906 325.824219 119.832031 322.09375 C 116.722656 318.582031 110.484375 313.160156 106.339844 312.105469 C 105.792969 312.035156 105.277344 311.96875 104.984375 312.34375 C 103.011719 314.832031 117.28125 328.097656 122.136719 328.292969 " fill-opacity="1" fill-rule="nonzero"/><path fill="#312f30" d="M 43.152344 151.949219 C 43.128906 151.898438 43.101562 151.832031 43.078125 151.78125 C 43.03125 151.777344 42.960938 151.773438 42.910156 151.769531 C 41.625 153.941406 40.382812 173.769531 41.382812 176.15625 C 41.433594 176.160156 41.5 176.160156 41.550781 176.164062 C 42.117188 175.128906 42.589844 170.1875 42.820312 167.335938 C 43.210938 162.542969 43.644531 154.128906 43.152344 151.949219 " fill-opacity="1" fill-rule="nonzero"/><path fill="#312f30" d="M 48.359375 150.917969 C 49.3125 145.871094 50.105469 137.941406 48.894531 136.097656 C 48.796875 136.023438 48.644531 135.925781 48.523438 135.9375 C 45.863281 136.234375 42.460938 157.429688 44.6875 159.8125 C 45.636719 160.824219 47.214844 157 48.359375 150.917969 " fill-opacity="1" fill-rule="nonzero"/><path fill="#312f30" d="M 57.351562 134.15625 C 58.765625 129.207031 59.914062 121.53125 58.039062 119.976562 C 57.957031 119.945312 57.855469 119.890625 57.769531 119.878906 C 54.113281 119.273438 48.691406 138.273438 51.25 142.71875 C 52.574219 145.019531 55.367188 141.097656 57.351562 134.15625 " fill-opacity="1" fill-rule="nonzero"/><path fill="#312f30" d="M 61.140625 125.570312 C 62.710938 128.449219 66.605469 124.4375 69.308594 117.160156 C 71.097656 112.332031 72.527344 104.964844 70.097656 103.707031 C 65.550781 102.898438 58.351562 120.46875 61.140625 125.570312 " fill-opacity="1" fill-rule="nonzero"/><path fill="#312f30" d="M 60.484375 155.578125 C 61.394531 150.472656 61.355469 142.648438 58.425781 141.21875 C 58.308594 141.199219 58.152344 141.152344 58.035156 141.144531 C 53.296875 140.894531 49.816406 159.097656 53.601562 164.332031 C 55.796875 167.371094 59.144531 163.117188 60.484375 155.578125 " fill-opacity="1" fill-rule="nonzero"/><path fill="#312f30" d="M 63.371094 146.117188 C 65.886719 149.824219 70.527344 145.472656 72.566406 137.496094 C 73.847656 132.480469 74.0625 124.917969 70.527344 123.800781 C 64.214844 123.296875 59.808594 140.871094 63.371094 146.117188 " fill-opacity="1" fill-rule="nonzero"/><path fill="#312f30" d="M 105.070312 158.183594 C 105.601562 152.992188 103.765625 145.539062 98.027344 145.222656 C 89.96875 145.960938 86.839844 160.363281 91.644531 166.78125 C 96.289062 172.984375 104.070312 168.003906 105.070312 158.183594 " fill-opacity="1" fill-rule="nonzero"/><path fill="#312f30" d="M 119.8125 177.328125 C 119.890625 172.046875 117.042969 164.59375 110.46875 164.5625 C 101.246094 165.734375 99.34375 180.25 105.597656 186.667969 C 111.429688 192.652344 119.667969 187.242188 119.8125 177.328125 " fill-opacity="1" fill-rule="nonzero"/><path fill="#312f30" d="M 122.910156 206.011719 C 129.75 211.726562 138.367188 205.925781 137.773438 196 C 137.457031 190.660156 133.726562 183.257812 126.425781 183.519531 C 116.375 185.101562 115.488281 199.816406 122.910156 206.011719 " fill-opacity="1" fill-rule="nonzero"/><path fill="#312f30" d="M 145.429688 201.964844 C 135.421875 203.816406 134.71875 217.570312 142.109375 223.941406 C 149.757812 230.539062 159.671875 224.550781 158.429688 214.085938 C 157.789062 208.722656 153.335938 201.414062 145.429688 201.964844 " fill-opacity="1" fill-rule="nonzero"/><path fill="#312f30" d="M 89.460938 125.71875 C 82.039062 126.082031 77.832031 141.335938 81.910156 147.296875 C 85.5 152.539062 92.164062 147.820312 94 138.738281 C 95.023438 133.675781 94.292969 126.289062 89.460938 125.71875 " fill-opacity="1" fill-rule="nonzero"/><path fill="#312f30" d="M 75.925781 127.574219 C 78.523438 131.890625 84.257812 127.496094 86.890625 119.175781 C 88.433594 114.285156 88.867188 107.042969 84.992188 106.246094 C 78.320312 106.226562 72.636719 122.105469 75.925781 127.574219 " fill-opacity="1" fill-rule="nonzero"/><path fill="#312f30" d="M 95.277344 228.191406 L 95.195312 228.332031 L 95.21875 228.34375 Z M 95.277344 228.191406 " fill-opacity="1" fill-rule="nonzero"/><path fill="#312f30" d="M 100.207031 248.332031 L 100.355469 248.46875 L 100.222656 248.332031 C 100.21875 248.332031 100.210938 248.332031 100.207031 248.332031 " fill-opacity="1" fill-rule="nonzero"/><path fill="#312f30" d="M 162.601562 314.222656 C 169.964844 317.113281 175.058594 313.136719 172.164062 306.757812 C 170.453125 302.988281 164.988281 297.824219 158.179688 298.125 C 157.472656 298.234375 156.585938 298.367188 155.746094 298.796875 C 150.0625 301.679688 154.164062 310.90625 162.601562 314.222656 " fill-opacity="1" fill-rule="nonzero"/><path fill="#312f30" d="M 161.503906 329.085938 C 167.101562 330.171875 169.402344 326.8125 166.328125 322.035156 C 164.34375 318.953125 158.832031 314.09375 152.492188 314.164062 C 152.070312 314.191406 150.792969 314.277344 149.804688 314.996094 C 145.339844 318.21875 152.992188 327.441406 161.503906 329.085938 " fill-opacity="1" fill-rule="nonzero"/><path fill="#312f30" d="M 133.824219 155.929688 C 134.097656 150.980469 131.617188 144.089844 125.25 144.277344 C 117.484375 145.09375 113.671875 157.640625 119.160156 164.3125 C 124.386719 170.664062 133.296875 165.574219 133.824219 155.929688 " fill-opacity="1" fill-rule="nonzero"/><path fill="#312f30" d="M 113.046875 125.984375 C 105.378906 126.992188 101.8125 140.015625 106.007812 145.804688 C 110.144531 151.507812 117.890625 147.03125 119.382812 138.078125 C 120.203125 133.132812 118.78125 126.113281 113.046875 125.984375 " fill-opacity="1" fill-rule="nonzero"/><path fill="#312f30" d="M 46.425781 135.910156 C 47.296875 135.445312 48.832031 130.660156 49.667969 127.847656 C 50 126.734375 52.890625 116.921875 52.464844 114.53125 C 52.425781 114.460938 52.351562 114.367188 52.277344 114.339844 C 52.238281 114.355469 52.179688 114.371094 52.144531 114.394531 C 50.164062 115.734375 44.925781 135.4375 46.425781 135.910156 " fill-opacity="1" fill-rule="nonzero"/><path fill="#312f30" d="M 180.425781 288.976562 C 179.0625 285.117188 174.3125 279.585938 166.820312 280.167969 C 166.257812 280.269531 165.5 280.410156 164.960938 280.601562 C 157.964844 283.097656 160.007812 293.230469 168.324219 297.277344 C 175.496094 300.769531 183.234375 296.921875 180.425781 288.976562 " fill-opacity="1" fill-rule="nonzero"/><path fill="#312f30" d="M 150.175781 349.015625 C 151.214844 348.84375 148.886719 346.859375 146.359375 345.058594 C 143.492188 343.015625 137.074219 338.898438 133.285156 337.96875 C 132.832031 337.90625 132.441406 337.851562 132.339844 338.105469 C 131.628906 339.898438 147.300781 349.484375 150.175781 349.015625 " fill-opacity="1" fill-rule="nonzero"/><path fill="#312f30" d="M 162.347656 341 C 166.285156 341.273438 166.820312 338.84375 163.621094 335.222656 C 161.519531 332.847656 155.988281 328.308594 150.070312 328.128906 C 149.277344 328.183594 148.53125 328.238281 147.90625 328.703125 C 144.292969 331.410156 154.957031 340.488281 162.347656 341 " fill-opacity="1" fill-rule="nonzero"/><path fill="#312f30" d="M 96.71875 127.136719 C 99.59375 131.378906 106.300781 128.132812 108.519531 119.597656 C 109.332031 116.46875 110.226562 108.261719 104.6875 107.867188 C 97.6875 108.527344 93.195312 121.9375 96.71875 127.136719 " fill-opacity="1" fill-rule="nonzero"/><path fill="#312f30" d="M 58.660156 112.328125 C 60.132812 108.695312 62.664062 101.371094 61.683594 99.652344 C 61.632812 99.617188 61.574219 99.558594 61.515625 99.539062 C 59.261719 98.761719 52.101562 116.707031 53.457031 119.753906 C 54.117188 121.238281 56.304688 118.117188 58.660156 112.328125 " fill-opacity="1" fill-rule="nonzero"/><path fill="#312f30" d="M 140.988281 162.585938 C 131.523438 164.332031 130.660156 177.066406 135.910156 182.546875 C 141.539062 188.425781 151.496094 184.289062 151.242188 173.839844 C 151.078125 166.980469 146.476562 161.933594 140.988281 162.585938 " fill-opacity="1" fill-rule="nonzero"/><path fill="#312f30" d="M 180.050781 231.472656 C 179.238281 226.800781 175.117188 220.136719 167.097656 220.929688 C 157.601562 222.433594 157.445312 235.589844 164.800781 241.0625 C 171.835938 246.296875 181.816406 241.621094 180.050781 231.472656 " fill-opacity="1" fill-rule="nonzero"/><path fill="#312f30" d="M 176.796875 277.886719 C 184.550781 282.75 193.125 277.71875 191.132812 269.476562 C 189.734375 263.683594 183.5 259.347656 177.789062 260.195312 C 177.5 260.257812 177.109375 260.320312 176.820312 260.398438 C 168.957031 262.496094 168.941406 272.957031 176.796875 277.886719 " fill-opacity="1" fill-rule="nonzero"/><path fill="#312f30" d="M 84.273438 88.15625 C 79.332031 87.84375 72.582031 102.582031 74.460938 106.90625 C 75.816406 110.035156 80.292969 106.546875 83.324219 99.996094 C 85.179688 95.984375 87.078125 89.222656 84.273438 88.15625 " fill-opacity="1" fill-rule="nonzero"/><path fill="#312f30" d="M 166.121094 350.554688 C 168.046875 350.394531 167.394531 348.601562 164.535156 346.199219 C 160.644531 342.929688 154.375 339.945312 151.121094 339.808594 C 150.523438 339.824219 149.960938 339.832031 149.59375 340.179688 C 147.148438 342.484375 160.742188 351.019531 166.121094 350.554688 " fill-opacity="1" fill-rule="nonzero"/><path fill="#312f30" d="M 100.359375 89.863281 C 94.808594 90.226562 88.570312 102.382812 91.085938 107.925781 C 93.089844 112.351562 99.15625 108.238281 101.898438 100.597656 C 103.390625 96.441406 103.898438 90.363281 100.359375 89.863281 " fill-opacity="1" fill-rule="nonzero"/><path fill="#312f30" d="M 63.851562 103.601562 C 64.582031 105.546875 67.800781 102.097656 70.746094 96.21875 C 72.710938 92.296875 75.027344 85.9375 73.75 84.75 C 73.742188 84.746094 73.734375 84.742188 73.726562 84.738281 C 70.753906 83.585938 62.355469 99.628906 63.851562 103.601562 " fill-opacity="1" fill-rule="nonzero"/><path fill="#312f30" d="M 159.773438 180.542969 C 151.265625 181.878906 148.828125 194.324219 155.882812 200.414062 C 162.800781 206.390625 172.183594 200.742188 171.324219 191.117188 C 170.898438 186.3125 167.03125 179.851562 159.773438 180.542969 " fill-opacity="1" fill-rule="nonzero"/><path fill="#312f30" d="M 195.085938 319.140625 C 193.308594 314.839844 186.996094 311.332031 182.101562 311.925781 C 181.652344 312.007812 181.050781 312.117188 180.625 312.269531 C 175.195312 314.207031 176.550781 321.539062 184.867188 325.066406 C 192.289062 328.21875 197.21875 324.285156 195.085938 319.140625 " fill-opacity="1" fill-rule="nonzero"/><path fill="#312f30" d="M 189.113281 333.25 C 187.265625 330.417969 181.765625 326.636719 176.257812 326.890625 C 175.265625 326.992188 174.453125 327.269531 173.839844 327.714844 C 169.953125 330.542969 175.910156 337.433594 183.648438 339.058594 C 189.59375 340.304688 191.5 336.902344 189.113281 333.25 " fill-opacity="1" fill-rule="nonzero"/><path fill="#312f30" d="M 140.414062 124.148438 C 134 124.992188 129.363281 135.898438 134.457031 142.15625 C 139.160156 147.929688 147.363281 143.398438 148.175781 134.574219 C 148.59375 129.996094 146.132812 123.824219 140.414062 124.148438 " fill-opacity="1" fill-rule="nonzero"/><path fill="#312f30" d="M 134.207031 117.253906 C 135.207031 111.519531 132.476562 106.601562 128.472656 106.933594 C 121.765625 108.058594 117.542969 119.253906 121.726562 124.808594 C 125.726562 130.117188 132.910156 124.695312 134.207031 117.253906 " fill-opacity="1" fill-rule="nonzero"/><path fill="#312f30" d="M 63.929688 91.511719 C 64.757812 89.96875 68.894531 82.183594 68.746094 80.242188 C 68.722656 80.207031 68.707031 80.148438 68.675781 80.125 C 67.375 79.164062 58.679688 95.695312 59.367188 97.8125 C 59.636719 98.648438 61.386719 96.230469 63.929688 91.511719 " fill-opacity="1" fill-rule="nonzero"/><path fill="#312f30" d="M 112.46875 106.859375 C 115 111.273438 121.777344 107.914062 123.871094 99.574219 C 124.824219 95.789062 124.675781 90.125 120.378906 90.046875 C 114.148438 90.886719 109.726562 102.082031 112.46875 106.859375 " fill-opacity="1" fill-rule="nonzero"/><path fill="#312f30" d="M 155.90625 141.46875 C 148.40625 142.648438 145.394531 154.320312 151.167969 159.84375 C 156.769531 165.199219 165.464844 159.878906 165.265625 151.214844 C 165.171875 147.109375 162.546875 140.835938 155.90625 141.46875 " fill-opacity="1" fill-rule="nonzero"/><path fill="#312f30" d="M 203.28125 301.945312 C 201.496094 297.328125 195.929688 294.183594 190.878906 294.929688 C 190.382812 295.03125 189.714844 295.167969 189.238281 295.339844 C 182.902344 297.617188 184.296875 305.875 191.609375 309.359375 C 198.9375 312.855469 205.8125 308.492188 203.28125 301.945312 " fill-opacity="1" fill-rule="nonzero"/><path fill="#312f30" d="M 186.199219 345.191406 C 183.082031 341.972656 177.496094 339.519531 173.75 339.722656 C 173.128906 339.789062 172.082031 339.898438 171.496094 340.519531 C 168.996094 343.152344 178.292969 349.753906 184.761719 349.933594 C 188.351562 350.03125 188.957031 348.039062 186.199219 345.191406 " fill-opacity="1" fill-rule="nonzero"/><path fill="#312f30" d="M 99.96875 72.640625 C 95.851562 72.261719 88.191406 84.523438 89.722656 89.042969 C 90.796875 92.210938 95.542969 89.628906 99.113281 82.550781 C 100.699219 79.40625 102.917969 73.289062 99.96875 72.640625 " fill-opacity="1" fill-rule="nonzero"/><path fill="#312f30" d="M 172.066406 357.789062 C 172.976562 357.601562 171.605469 356.386719 168.394531 354.539062 C 167.605469 354.085938 160.546875 350.078125 156.085938 349.441406 C 155.617188 349.414062 155.171875 349.390625 155.023438 349.617188 C 154.007812 351.128906 169.136719 358.386719 172.066406 357.789062 " fill-opacity="1" fill-rule="nonzero"/><path fill="#312f30" d="M 214.140625 283.496094 C 213.253906 279.890625 209.265625 274.871094 201.914062 275.839844 C 201.914062 275.839844 201.914062 275.839844 201.910156 275.839844 C 201.910156 275.84375 201.910156 275.84375 201.910156 275.84375 C 201.90625 275.84375 201.90625 275.84375 201.90625 275.84375 C 201.90625 275.84375 201.902344 275.84375 201.902344 275.84375 C 201.898438 275.84375 201.898438 275.84375 201.898438 275.84375 C 201.894531 275.84375 201.894531 275.84375 201.894531 275.84375 C 201.894531 275.84375 201.890625 275.84375 201.890625 275.84375 C 200.765625 276.105469 198.425781 276.644531 196.839844 278.792969 C 193.054688 283.917969 198.179688 293.738281 208.070312 292.429688 C 208.070312 292.429688 208.070312 292.429688 208.074219 292.429688 C 208.074219 292.425781 208.074219 292.425781 208.074219 292.425781 C 208.078125 292.425781 208.078125 292.425781 208.078125 292.425781 C 208.078125 292.425781 208.082031 292.425781 208.082031 292.425781 C 208.082031 292.425781 208.085938 292.425781 208.085938 292.425781 C 208.085938 292.425781 208.089844 292.425781 208.089844 292.425781 C 208.089844 292.425781 208.089844 292.425781 208.09375 292.425781 C 215.675781 290.675781 214.320312 284.226562 214.140625 283.496094 " fill-opacity="1" fill-rule="nonzero"/><path fill="#312f30" d="M 203.257812 248.027344 C 202.539062 243.886719 198.445312 237.675781 190.542969 238.640625 C 181.335938 240.796875 181.382812 252.082031 188.570312 256.8125 C 195.933594 261.65625 204.71875 256.402344 203.257812 248.027344 " fill-opacity="1" fill-rule="nonzero"/><path fill="#312f30" d="M 181.148438 198.335938 C 172.648438 199.90625 170.855469 212.144531 178.328125 217.589844 C 185.488281 222.804688 194.496094 216.925781 193.152344 207.910156 C 192.367188 202.640625 187.894531 197.492188 181.148438 198.335938 " fill-opacity="1" fill-rule="nonzero"/><path fill="#312f30" d="M 54.84375 105.824219 C 56.085938 102.84375 59.015625 95.714844 59.382812 93.941406 C 59.390625 93.898438 59.386719 93.835938 59.390625 93.789062 C 59.359375 93.789062 59.320312 93.789062 59.289062 93.789062 C 58.0625 95.308594 51.195312 111.578125 51.769531 112.582031 C 51.953125 112.328125 52.378906 111.734375 54.84375 105.824219 " fill-opacity="1" fill-rule="nonzero"/><path fill="#312f30" d="M 154.179688 352.484375 C 146.078125 348.277344 143.765625 347.261719 142.570312 346.824219 C 142.566406 346.824219 142.566406 346.824219 142.566406 346.824219 C 142.5625 346.824219 142.5625 346.820312 142.5625 346.820312 C 142.558594 346.820312 142.558594 346.820312 142.558594 346.820312 C 142.445312 346.789062 142.289062 346.742188 142.167969 346.726562 C 142.164062 346.753906 142.152344 346.792969 142.144531 346.820312 C 143.832031 348.414062 157.988281 355.269531 159.660156 355.523438 C 159.597656 355.386719 159.546875 355.273438 154.179688 352.484375 " fill-opacity="1" fill-rule="nonzero"/><path fill="#312f30" d="M 77.101562 86.96875 C 77.695312 89.074219 81 87 84.785156 80.644531 C 85 80.277344 90.089844 71.675781 87.894531 70.316406 C 84.109375 69.71875 76.144531 83.585938 77.101562 86.96875 " fill-opacity="1" fill-rule="nonzero"/><path fill="#312f30" d="M 187.683594 358.246094 C 187.683594 358.246094 187.6875 358.246094 187.6875 358.246094 C 187.691406 358.246094 187.691406 358.246094 187.691406 358.246094 C 187.691406 358.246094 187.695312 358.246094 187.695312 358.246094 C 187.824219 358.238281 187.996094 358.234375 188.125 358.21875 C 189.9375 358.011719 189.441406 356.683594 186.871094 354.839844 C 183.226562 352.234375 177.753906 350.140625 174.671875 350.175781 C 174.121094 350.214844 173.554688 350.25 173.195312 350.546875 C 171.230469 352.175781 181.214844 358.121094 187.683594 358.246094 " fill-opacity="1" fill-rule="nonzero"/><path fill="#312f30" d="M 116.339844 73.394531 C 115.722656 73.460938 114.785156 73.558594 113.207031 74.84375 C 107.550781 79.441406 104.371094 90.367188 109.714844 90.753906 C 109.714844 90.753906 109.71875 90.753906 109.71875 90.753906 C 109.71875 90.753906 109.71875 90.753906 109.722656 90.753906 C 109.726562 90.753906 109.726562 90.753906 109.726562 90.753906 C 114.148438 90.300781 117.035156 83.738281 117.351562 82.992188 C 119.304688 78.359375 119.363281 73.398438 116.339844 73.394531 " fill-opacity="1" fill-rule="nonzero"/><path fill="#312f30" d="M 80.824219 66.550781 C 79.417969 66.222656 68.84375 80.253906 70.261719 83.132812 C 70.261719 83.132812 70.261719 83.132812 70.265625 83.132812 C 70.265625 83.132812 70.265625 83.132812 70.265625 83.136719 C 71.488281 83.847656 75.761719 77.355469 76.242188 76.609375 C 77.769531 74.265625 81.589844 67.902344 80.960938 66.628906 C 80.917969 66.605469 80.871094 66.5625 80.824219 66.550781 " fill-opacity="1" fill-rule="nonzero"/><path fill="#312f30" d="M 174.542969 158.605469 C 165.421875 160.753906 165.246094 172.1875 170.640625 176.761719 C 176.253906 181.515625 185.640625 177.226562 185.019531 168.113281 C 184.597656 161.941406 179.894531 157.675781 174.542969 158.605469 " fill-opacity="1" fill-rule="nonzero"/><path fill="#312f30" d="M 195.734375 175.433594 C 188.164062 177.402344 185.976562 187.140625 191.898438 192.511719 C 198.71875 198.699219 207.53125 192.546875 206.835938 184.480469 C 206.457031 180.089844 202.386719 174.503906 195.734375 175.433594 " fill-opacity="1" fill-rule="nonzero"/><path fill="#312f30" d="M 216.414062 224.652344 C 215.640625 218.898438 209.792969 214.464844 204.382812 215.523438 C 196.605469 217.582031 194.75 227.734375 201.179688 233.046875 C 208.765625 239.3125 217.535156 232.988281 216.414062 224.652344 " fill-opacity="1" fill-rule="nonzero"/><path fill="#312f30" d="M 226.535156 262.523438 C 225.59375 257.535156 219.851562 253.789062 214.714844 254.8125 C 207.078125 256.808594 205.613281 265.847656 212.183594 270.410156 C 219.691406 275.628906 227.902344 269.777344 226.535156 262.523438 " fill-opacity="1" fill-rule="nonzero"/><path fill="#312f30" d="M 92.566406 70.765625 C 92.941406 73.464844 97.308594 69.933594 100.621094 65.148438 C 103 61.71875 105.417969 56.613281 103.777344 55.949219 C 100.289062 55.832031 92.011719 66.769531 92.566406 70.765625 " fill-opacity="1" fill-rule="nonzero"/><path fill="#312f30" d="M 216.96875 329.453125 C 215.5625 325.984375 209.980469 323.203125 205.699219 323.835938 C 205.296875 323.914062 204.761719 324.027344 204.378906 324.167969 C 199.839844 325.828125 200.453125 331.464844 207.019531 334.328125 C 213.742188 337.261719 218.761719 333.875 216.96875 329.453125 " fill-opacity="1" fill-rule="nonzero"/><path fill="#312f30" d="M 164.621094 356.789062 C 164.5 356.769531 164.339844 356.753906 164.21875 356.753906 C 164.203125 356.78125 164.183594 356.824219 164.171875 356.855469 C 165.605469 358.269531 178.097656 362.644531 180.9375 363.078125 C 180.96875 363.054688 181.003906 363.019531 181.03125 362.996094 C 180.554688 362.691406 178.894531 361.976562 176.09375 360.863281 C 175.214844 360.511719 167.417969 357.425781 164.621094 356.789062 " fill-opacity="1" fill-rule="nonzero"/><path fill="#312f30" d="M 106.46875 71.875 C 107.410156 74.804688 112.011719 71.746094 115.261719 66.035156 C 117.027344 62.925781 118.890625 57.835938 116.367188 57.398438 C 112.246094 57.691406 105.21875 67.972656 106.46875 71.875 " fill-opacity="1" fill-rule="nonzero"/><path fill="#312f30" d="M 193.964844 364.195312 C 194.660156 363.792969 191.691406 362.363281 190.765625 361.933594 C 187.191406 360.277344 181.773438 358.429688 179.246094 358.320312 C 178.84375 358.324219 178.425781 358.332031 178.300781 358.539062 C 177.40625 360.015625 192.042969 365.304688 193.964844 364.195312 " fill-opacity="1" fill-rule="nonzero"/><path fill="#312f30" d="M 155.332031 104.402344 C 149.003906 105.8125 145.875 115.53125 150.183594 120.398438 C 154.375 125.132812 161.710938 120.742188 162.261719 113.167969 C 162.632812 108.003906 159.332031 103.824219 155.332031 104.402344 " fill-opacity="1" fill-rule="nonzero"/><path fill="#312f30" d="M 143.644531 88.390625 C 138 89.519531 134.199219 98.773438 137.390625 103.628906 C 140.539062 108.414062 147.394531 104.457031 148.675781 97.117188 C 149.546875 92.144531 147.148438 87.988281 143.644531 88.390625 " fill-opacity="1" fill-rule="nonzero"/><path fill="#312f30" d="M 205.171875 347.15625 C 210.71875 348.3125 212.917969 345.523438 210.828125 342.429688 C 208.828125 339.464844 203.515625 337.183594 199.683594 337.648438 C 198.957031 337.773438 198.273438 337.894531 197.566406 338.378906 C 194.199219 340.699219 198.605469 345.78125 205.171875 347.15625 " fill-opacity="1" fill-rule="nonzero"/><path fill="#312f30" d="M 83.800781 67.917969 C 84.050781 69.390625 86.988281 66.972656 90.496094 62.414062 C 90.558594 62.335938 96.445312 54.652344 95.335938 53.417969 C 93.007812 52.78125 83.308594 64.976562 83.800781 67.917969 " fill-opacity="1" fill-rule="nonzero"/><path fill="#312f30" d="M 206.367188 356.855469 C 209.496094 356.8125 210.070312 355.214844 207.734375 353.054688 C 205.882812 351.339844 201.492188 348.882812 196.992188 349.140625 C 196.453125 349.199219 195.46875 349.363281 194.960938 349.871094 C 192.726562 352.101562 200.617188 356.929688 206.367188 356.855469 " fill-opacity="1" fill-rule="nonzero"/><path fill="#312f30" d="M 135.828125 72.765625 C 130.925781 73.253906 126.191406 83.078125 128.789062 87.363281 C 130.921875 90.890625 136.832031 87.910156 138.746094 81.015625 C 139.679688 77.652344 139.671875 72.683594 135.828125 72.765625 " fill-opacity="1" fill-rule="nonzero"/><path fill="#312f30" d="M 170.625 120.65625 C 164.03125 121.84375 161.347656 131.933594 166.339844 136.769531 C 170.882812 141.167969 179.195312 137.300781 178.96875 129.0625 C 178.863281 125.289062 176.554688 119.9375 170.625 120.65625 " fill-opacity="1" fill-rule="nonzero"/><path fill="#312f30" d="M 225.46875 313.554688 C 224.539062 310.914062 220.757812 307.035156 214.589844 307.871094 C 214.152344 307.953125 213.488281 308.109375 212.828125 308.386719 C 207.644531 310.570312 208.65625 317.105469 214.597656 319.847656 C 220.886719 322.75 227.386719 318.988281 225.46875 313.554688 " fill-opacity="1" fill-rule="nonzero"/><path fill="#312f30" d="M 72.898438 71.640625 C 75.398438 68 78.464844 63.371094 78.875 62 C 78.859375 61.960938 78.835938 61.902344 78.820312 61.859375 C 77.351562 62.359375 68.539062 75.636719 68.894531 76.8125 C 69.058594 76.753906 69.496094 76.601562 72.898438 71.640625 " fill-opacity="1" fill-rule="nonzero"/><path fill="#312f30" d="M 85.273438 58.433594 C 85.335938 58.359375 91.355469 51.097656 91.363281 49.730469 C 91.34375 49.710938 91.320312 49.683594 91.300781 49.660156 C 89.597656 49.582031 79.3125 62.320312 80.1875 63.429688 C 80.941406 63.488281 83.699219 60.324219 85.273438 58.433594 " fill-opacity="1" fill-rule="nonzero"/><path fill="#312f30" d="M 187.570312 364.214844 C 187.175781 364.1875 187.175781 364.1875 187.070312 364.285156 C 188 365.203125 201.1875 368.464844 202.40625 368.078125 C 202.242188 367.988281 201.972656 367.839844 198.246094 366.800781 C 192.882812 365.3125 189.289062 364.441406 187.570312 364.214844 " fill-opacity="1" fill-rule="nonzero"/><path fill="#312f30" d="M 218.835938 192.136719 C 211.609375 193.816406 209.746094 203.574219 215.71875 208.445312 C 222.136719 213.679688 230.929688 208.492188 229.761719 200.160156 C 229.199219 196.148438 225.4375 191.007812 218.835938 192.136719 " fill-opacity="1" fill-rule="nonzero"/><path fill="#312f30" d="M 230.828125 303.597656 C 230.828125 303.597656 230.832031 303.597656 230.832031 303.597656 C 230.835938 303.597656 230.835938 303.597656 230.839844 303.597656 C 230.839844 303.59375 230.84375 303.59375 230.84375 303.59375 C 230.847656 303.59375 230.847656 303.59375 230.851562 303.59375 C 230.851562 303.59375 230.855469 303.589844 230.855469 303.589844 C 230.855469 303.589844 230.859375 303.589844 230.859375 303.589844 C 230.863281 303.589844 230.863281 303.589844 230.867188 303.589844 C 237.613281 301.902344 236.554688 296.460938 236.410156 295.847656 C 235.707031 292.835938 232.300781 288.734375 225.792969 289.761719 C 223.230469 290.292969 221.855469 291.652344 221.265625 292.414062 C 217.535156 297.230469 222.714844 304.839844 230.820312 303.597656 C 230.824219 303.597656 230.824219 303.597656 230.828125 303.597656 " fill-opacity="1" fill-rule="nonzero"/><path fill="#312f30" d="M 132.109375 57.5 C 128.140625 57.777344 122.691406 66.65625 124.007812 70.695312 C 125.105469 74.066406 130.164062 71.675781 132.917969 65.230469 C 134.175781 62.292969 135.066406 57.589844 132.109375 57.5 " fill-opacity="1" fill-rule="nonzero"/><path fill="#312f30" d="M 99.621094 53.179688 C 99.574219 54.871094 102.863281 52.578125 106.664062 48.277344 C 108.621094 46.0625 112.351562 41.257812 111.398438 40.542969 C 108.953125 40.296875 99.710938 50.214844 99.621094 53.179688 " fill-opacity="1" fill-rule="nonzero"/><path fill="#312f30" d="M 209.605469 363.722656 C 210.742188 363.378906 210.054688 362.351562 207.859375 361.105469 C 206.011719 360.054688 201.515625 358.089844 197.742188 358.179688 C 197.742188 358.179688 197.738281 358.179688 197.738281 358.179688 C 197.738281 358.179688 197.734375 358.179688 197.734375 358.179688 C 197.734375 358.179688 197.734375 358.179688 197.730469 358.179688 C 197.730469 358.179688 197.730469 358.179688 197.726562 358.179688 C 197.722656 358.179688 197.722656 358.179688 197.722656 358.179688 C 197.722656 358.179688 197.71875 358.179688 197.71875 358.179688 C 197.71875 358.179688 197.714844 358.179688 197.714844 358.179688 C 197.269531 358.226562 196.519531 358.304688 196.265625 358.683594 C 195 360.59375 206.09375 364.785156 209.605469 363.722656 " fill-opacity="1" fill-rule="nonzero"/><path fill="#312f30" d="M 189.046875 136.804688 C 189.042969 136.804688 189.042969 136.804688 189.039062 136.804688 C 189.039062 136.804688 189.035156 136.804688 189.035156 136.804688 C 189.03125 136.804688 189.03125 136.804688 189.027344 136.804688 C 189.027344 136.808594 189.023438 136.808594 189.023438 136.808594 C 189.023438 136.808594 189.019531 136.808594 189.019531 136.808594 C 189.015625 136.808594 189.015625 136.808594 189.011719 136.808594 C 189.011719 136.808594 189.007812 136.8125 189.007812 136.8125 C 189.003906 136.8125 189.003906 136.8125 189 136.8125 C 180.925781 138.992188 180.988281 149.269531 185.894531 153.027344 C 191.46875 157.300781 199.085938 152.335938 198.433594 144.855469 C 198.121094 141.253906 195.292969 135.882812 189.046875 136.804688 " fill-opacity="1" fill-rule="nonzero"/><path fill="#312f30" d="M 178.691406 362.6875 L 179.207031 362.839844 C 178.824219 362.722656 178.425781 362.605469 178.054688 362.492188 L 178.691406 362.6875 " fill-opacity="1" fill-rule="nonzero"/><path fill="#312f30" d="M 239.722656 239.703125 C 238.765625 234.605469 233.71875 231.234375 228.695312 232.34375 C 220.558594 234.632812 220.207031 244.355469 226.3125 248.316406 C 232.863281 252.558594 241.132812 247.246094 239.722656 239.703125 " fill-opacity="1" fill-rule="nonzero"/><path fill="#312f30" d="M 109.679688 55.085938 C 110.089844 57.109375 113.96875 54.464844 117.511719 49.75 C 119.191406 47.511719 122.113281 42.742188 120.417969 42.285156 C 117.746094 42.054688 108.96875 51.59375 109.679688 55.085938 " fill-opacity="1" fill-rule="nonzero"/><path fill="#312f30" d="M 249.113281 276.078125 C 248.667969 272.226562 244.308594 268.597656 238.769531 269.546875 C 232.375 271.324219 230.550781 278.367188 235.460938 282.320312 C 241.679688 287.324219 249.851562 282.453125 249.113281 276.078125 " fill-opacity="1" fill-rule="nonzero"/><path fill="#312f30" d="M 214.691406 368.398438 C 215.226562 368.101562 212.824219 367.230469 212.074219 366.972656 C 209.007812 365.914062 204.136719 364.746094 202.046875 364.769531 C 201.738281 364.789062 201.226562 364.816406 201.226562 365.058594 C 201.21875 366.273438 213.175781 369.238281 214.691406 368.398438 " fill-opacity="1" fill-rule="nonzero"/><path fill="#312f30" d="M 210.132812 152.6875 C 210.132812 152.6875 210.128906 152.6875 210.128906 152.6875 C 210.128906 152.6875 210.125 152.6875 210.125 152.6875 C 210.121094 152.6875 210.121094 152.691406 210.117188 152.691406 C 210.117188 152.691406 210.117188 152.691406 210.113281 152.691406 C 210.113281 152.691406 210.109375 152.691406 210.109375 152.691406 C 210.109375 152.691406 210.105469 152.695312 210.105469 152.695312 C 210.101562 152.695312 210.101562 152.695312 210.097656 152.695312 C 210.097656 152.695312 210.09375 152.695312 210.09375 152.695312 C 203.046875 154.746094 201.582031 164.414062 207.675781 168.609375 C 214.066406 173.003906 221.054688 166.945312 220.050781 160.082031 C 219.511719 156.40625 215.765625 151.789062 210.132812 152.6875 " fill-opacity="1" fill-rule="nonzero"/><path fill="#312f30" d="M 123.625 55.136719 C 124.3125 57.476562 128.414062 54.742188 131.324219 50.007812 C 132.671875 47.8125 134.742188 43.1875 132.535156 42.914062 C 128.925781 43.359375 122.679688 51.925781 123.625 55.136719 " fill-opacity="1" fill-rule="nonzero"/><path fill="#312f30" d="M 94.289062 50.023438 C 94.289062 50.023438 94.289062 50.023438 94.292969 50.023438 C 94.292969 50.023438 94.292969 50.023438 94.292969 50.027344 C 94.292969 50.027344 94.292969 50.027344 94.296875 50.027344 C 95.160156 50.390625 99.15625 46.363281 100.359375 45.121094 C 100.605469 44.871094 106.320312 38.953125 106.042969 37.929688 C 106.011719 37.914062 105.976562 37.890625 105.945312 37.882812 C 104.765625 37.683594 93.476562 47.992188 94.289062 50.023438 " fill-opacity="1" fill-rule="nonzero"/><path fill="#312f30" d="M 237.109375 337.875 C 236.179688 335.871094 232.769531 333.339844 228.097656 333.980469 C 227.441406 334.101562 226.777344 334.324219 226.28125 334.589844 C 222.796875 336.464844 224.320312 340.683594 229.09375 342.367188 C 234.171875 344.164062 238.820312 341.558594 237.109375 337.875 " fill-opacity="1" fill-rule="nonzero"/><path fill="#312f30" d="M 165.257812 98.871094 C 168.960938 102.882812 175.265625 98.742188 175.324219 92.253906 C 175.355469 89.128906 173.519531 84.941406 169.34375 85.425781 C 164.214844 86.378906 161.621094 94.925781 165.257812 98.871094 " fill-opacity="1" fill-rule="nonzero"/><path fill="#312f30" d="M 225.730469 353.574219 C 230.082031 354.363281 232.703125 352.492188 230.917969 349.863281 C 229.367188 347.574219 225.152344 345.984375 221.894531 346.464844 C 221.367188 346.566406 220.488281 346.738281 219.824219 347.265625 C 217.472656 349.136719 220.785156 352.675781 225.730469 353.574219 " fill-opacity="1" fill-rule="nonzero"/><path fill="#312f30" d="M 157.878906 70.734375 C 152.722656 71.871094 150.285156 80.476562 153.148438 83.761719 C 155.792969 86.796875 161.355469 83.765625 162.167969 77.558594 C 162.648438 73.910156 161.144531 70.265625 157.878906 70.734375 " fill-opacity="1" fill-rule="nonzero"/><path fill="#312f30" d="M 246.015625 323.355469 C 245.289062 321.210938 242.339844 318.320312 237.183594 319.164062 C 236.9375 319.214844 236.402344 319.359375 236.398438 319.359375 C 231.144531 320.957031 231.742188 326.285156 236.09375 328.554688 C 241.394531 331.320312 247.609375 328.0625 246.015625 323.355469 " fill-opacity="1" fill-rule="nonzero"/><path fill="#312f30" d="M 150.363281 56.371094 C 146.40625 56.875 142.511719 64.957031 144.574219 68.378906 C 146.300781 71.234375 151.136719 68.769531 152.734375 63.136719 C 153.535156 60.320312 153.5625 56.199219 150.363281 56.371094 " fill-opacity="1" fill-rule="nonzero"/><path fill="#312f30" d="M 184.4375 100.46875 C 177.851562 102.191406 177.496094 110.941406 181.292969 114.21875 C 185.230469 117.617188 191.984375 114.21875 191.671875 107.472656 C 191.457031 102.875 188.210938 99.730469 184.4375 100.46875 " fill-opacity="1" fill-rule="nonzero"/><path fill="#312f30" d="M 226.457031 361.875 C 228.933594 361.71875 229.421875 360.566406 227.648438 359.074219 C 225.789062 357.507812 222.03125 356.113281 218.960938 356.484375 C 218.492188 356.5625 217.703125 356.691406 217.261719 357.105469 C 215.429688 358.824219 221.875 362.167969 226.457031 361.875 " fill-opacity="1" fill-rule="nonzero"/><path fill="#312f30" d="M 229.019531 367.363281 C 229.90625 367.09375 229.433594 366.453125 227.785156 365.6875 C 226.027344 364.875 222.355469 363.726562 219.449219 363.914062 C 219.003906 363.957031 218.433594 364.066406 218.253906 364.339844 C 217.390625 365.660156 226.347656 368.171875 229.019531 367.363281 " fill-opacity="1" fill-rule="nonzero"/><path fill="#312f30" d="M 127.359375 39.964844 C 127.675781 41.398438 130.902344 39.257812 134 35.558594 C 136.433594 32.652344 138.222656 29.464844 137.003906 29.359375 C 134.148438 29.613281 126.84375 37.640625 127.359375 39.964844 " fill-opacity="1" fill-rule="nonzero"/><path fill="#312f30" d="M 210.183594 368.988281 C 209.84375 368.988281 209.84375 368.988281 209.765625 369.058594 C 210.640625 369.613281 221.96875 371.121094 222.796875 370.789062 C 222.503906 370.714844 222.117188 370.65625 219.101562 370.195312 C 214.34375 369.46875 211.722656 369.070312 210.183594 368.988281 " fill-opacity="1" fill-rule="nonzero"/><path fill="#312f30" d="M 147.507812 48.753906 C 148.890625 45.667969 149.03125 42.332031 147.011719 42.488281 C 143.441406 43.144531 138.980469 50.613281 140.382812 53.589844 C 141.523438 56.003906 145.449219 53.335938 147.507812 48.753906 " fill-opacity="1" fill-rule="nonzero"/><path fill="#312f30" d="M 110.558594 36.792969 C 110.382812 37.777344 113.03125 36.058594 116.722656 32.796875 C 116.785156 32.742188 122.875 27.296875 122.4375 26.574219 C 120.800781 26.273438 110.921875 34.773438 110.558594 36.792969 " fill-opacity="1" fill-rule="nonzero"/><path fill="#312f30" d="M 243.117188 208.609375 C 235.4375 210.925781 235.746094 219.816406 240.28125 223.46875 C 245.578125 227.738281 254.320312 223.820312 253.191406 215.835938 C 252.457031 210.667969 247.9375 207.425781 243.117188 208.609375 " fill-opacity="1" fill-rule="nonzero"/><path fill="#312f30" d="M 128.246094 28.417969 C 125.886719 28.375 116.90625 36.921875 117.074219 39.054688 C 117.160156 40.164062 119.804688 38.765625 123.925781 34.574219 C 124.148438 34.347656 129.398438 28.988281 128.246094 28.417969 " fill-opacity="1" fill-rule="nonzero"/><path fill="#312f30" d="M 252.9375 247.792969 C 246.03125 249.546875 245.214844 257.722656 250.097656 261.183594 C 255.558594 265.054688 263.457031 260.445312 262.523438 253.929688 C 262.089844 250.902344 259.105469 246.554688 252.9375 247.792969 " fill-opacity="1" fill-rule="nonzero"/><path fill="#312f30" d="M 91.546875 45.246094 C 91.566406 45.210938 91.5625 45.15625 91.566406 45.121094 C 90.457031 45.617188 81.519531 56.203125 81.5 57.042969 C 81.753906 56.886719 82.417969 56.179688 85.347656 52.761719 C 90.140625 47.167969 91.164062 45.878906 91.546875 45.246094 " fill-opacity="1" fill-rule="nonzero"/><path fill="#312f30" d="M 233.148438 168.671875 C 225.40625 171.03125 226.050781 180.273438 231.039062 183.59375 C 236.804688 187.4375 243.992188 182.546875 242.867188 175.542969 C 242.09375 170.722656 237.644531 167.574219 233.148438 168.671875 " fill-opacity="1" fill-rule="nonzero"/><path fill="#312f30" d="M 202.71875 115.445312 C 196.253906 117.296875 195.703125 125.875 200.421875 129.300781 C 205.355469 132.886719 211.8125 128.3125 210.886719 121.890625 C 210.460938 118.945312 207.871094 114.589844 202.71875 115.445312 " fill-opacity="1" fill-rule="nonzero"/><path fill="#312f30" d="M 257.261719 306.714844 C 256.671875 303.789062 253.425781 301.15625 248.582031 302.042969 C 242.625 303.429688 241.996094 309.351562 246.082031 312.175781 C 251.023438 315.585938 258.339844 312.015625 257.261719 306.714844 " fill-opacity="1" fill-rule="nonzero"/><path fill="#312f30" d="M 98.046875 41.140625 C 98.105469 41.085938 104.003906 35.398438 104.390625 34.402344 C 104.390625 34.398438 104.390625 34.398438 104.390625 34.398438 C 104.390625 34.398438 104.390625 34.398438 104.375 34.34375 C 103.105469 34.296875 93.058594 44.105469 93.289062 45.164062 C 93.742188 45.207031 96.464844 42.660156 98.046875 41.140625 " fill-opacity="1" fill-rule="nonzero"/><path fill="#312f30" d="M 221.988281 143.929688 C 227.539062 147.570312 233.3125 142.335938 232.269531 136.535156 C 231.726562 133.515625 228.613281 129.480469 223.65625 130.421875 C 218.273438 131.792969 216.347656 140.234375 221.988281 143.929688 " fill-opacity="1" fill-rule="nonzero"/><path fill="#312f30" d="M 270.140625 287.6875 C 269.738281 284.636719 266.441406 281.925781 261.8125 282.847656 C 256.820312 284.113281 254.261719 290.164062 258.75 293.523438 C 263.90625 297.386719 270.828125 292.898438 270.140625 287.6875 " fill-opacity="1" fill-rule="nonzero"/><path fill="#312f30" d="M 223.640625 368.820312 C 223.148438 368.863281 223.011719 368.90625 222.96875 369.035156 C 223.425781 369.945312 232.566406 370.941406 233.734375 370.496094 C 233.738281 370.472656 233.742188 370.441406 233.75 370.417969 C 233.652344 370.347656 233.402344 370.160156 231.167969 369.71875 C 230.335938 369.554688 226.0625 368.734375 223.640625 368.820312 " fill-opacity="1" fill-rule="nonzero"/><path fill="#312f30" d="M 140.339844 39.0625 C 140.65625 40.921875 143.773438 39.265625 146.527344 35.027344 C 148.277344 32.332031 149.261719 29.453125 147.800781 29.5 C 145.152344 29.902344 139.921875 36.605469 140.339844 39.0625 " fill-opacity="1" fill-rule="nonzero"/><path fill="#312f30" d="M 113.097656 29.910156 C 115.367188 28.074219 119.203125 24.882812 119.378906 24.167969 C 118.679688 23.542969 108.238281 31.988281 108.09375 33.296875 C 108.183594 33.390625 108.457031 33.664062 113.097656 29.910156 " fill-opacity="1" fill-rule="nonzero"/><path fill="#312f30" d="M 179.148438 78.191406 C 181.96875 80.910156 186.929688 78.210938 186.78125 72.839844 C 186.722656 70.742188 185.617188 66.921875 181.835938 67.464844 C 177.496094 68.378906 176.316406 75.46875 179.148438 78.191406 " fill-opacity="1" fill-rule="nonzero"/><path fill="#312f30" d="M 248.539062 342.386719 C 248.257812 342.453125 247.882812 342.542969 247.613281 342.640625 C 244.222656 343.863281 244.976562 346.992188 247.992188 348.355469 C 251.449219 349.914062 256.355469 348.28125 255.234375 345.183594 C 254.695312 343.703125 252.46875 341.742188 248.539062 342.386719 " fill-opacity="1" fill-rule="nonzero"/><path fill="#312f30" d="M 174.121094 59.425781 C 174.425781 56.457031 173.203125 53.640625 170.621094 54.066406 C 166.632812 55.039062 164.9375 61.683594 167.203125 64.277344 C 169.332031 66.714844 173.609375 64.355469 174.121094 59.425781 " fill-opacity="1" fill-rule="nonzero"/><path fill="#312f30" d="M 244.050781 358.328125 C 247.273438 358.925781 250.132812 357.71875 248.75 355.621094 C 247.625 353.914062 244.691406 352.9375 242.070312 353.394531 C 241.648438 353.484375 240.9375 353.636719 240.394531 354.023438 C 238.582031 355.3125 240.59375 357.6875 244.050781 358.328125 " fill-opacity="1" fill-rule="nonzero"/><path fill="#312f30" d="M 264.457031 331.914062 C 264.054688 330.253906 261.949219 328.070312 257.804688 328.847656 C 252.894531 330.152344 253.144531 334.207031 256.078125 335.914062 C 259.945312 338.164062 265.351562 335.585938 264.457031 331.914062 " fill-opacity="1" fill-rule="nonzero"/><path fill="#312f30" d="M 257.394531 184.464844 C 250.671875 186.339844 250.988281 194.652344 255.195312 197.785156 C 259.964844 201.335938 267.605469 197.339844 266.261719 190.347656 C 265.761719 187.738281 263.265625 183.15625 257.394531 184.464844 " fill-opacity="1" fill-rule="nonzero"/><path fill="#312f30" d="M 145.257812 17.105469 C 143.222656 17.21875 135.335938 23.925781 135.328125 25.550781 C 135.320312 26.367188 137.457031 25.292969 141.039062 22.082031 C 141.089844 22.035156 146.191406 17.449219 145.257812 17.105469 " fill-opacity="1" fill-rule="nonzero"/><path fill="#312f30" d="M 128.566406 24.3125 C 128.5 24.992188 130.78125 23.664062 134.238281 21 C 134.792969 20.574219 139.640625 16.820312 139.707031 16.070312 C 139.691406 16.054688 139.671875 16.035156 139.65625 16.019531 C 138.125 15.921875 128.691406 22.976562 128.566406 24.3125 " fill-opacity="1" fill-rule="nonzero"/><path fill="#312f30" d="M 265.003906 237.386719 C 269.589844 240.75 277.203125 237.039062 276.253906 230.339844 C 275.886719 227.746094 273.601562 223.191406 267.578125 224.542969 C 260.261719 226.9375 261.375 234.722656 265.003906 237.386719 " fill-opacity="1" fill-rule="nonzero"/><path fill="#312f30" d="M 194.757812 92.152344 C 198.460938 95.207031 203.519531 91.5625 202.835938 86.332031 C 202.523438 83.972656 200.59375 80.464844 196.734375 81.109375 C 192.363281 82.125 191.105469 89.144531 194.757812 92.152344 " fill-opacity="1" fill-rule="nonzero"/><path fill="#312f30" d="M 283.972656 266.414062 C 283.503906 263.058594 279.820312 260.875 276.242188 261.828125 C 270.929688 263.554688 269.21875 269.636719 273.191406 272.671875 C 278.042969 276.378906 284.6875 271.578125 283.972656 266.414062 " fill-opacity="1" fill-rule="nonzero"/><path fill="#312f30" d="M 244.699219 365.160156 C 246.238281 364.894531 246.445312 364.09375 245.207031 363.207031 C 244.1875 362.476562 241.554688 361.445312 238.832031 361.78125 C 237.9375 361.917969 237.566406 362.191406 237.40625 362.394531 C 236.34375 363.773438 241.453125 365.710938 244.699219 365.160156 " fill-opacity="1" fill-rule="nonzero"/><path fill="#312f30" d="M 159.125 50.398438 C 160.523438 52.8125 164.148438 50.425781 165.28125 46.347656 C 166.039062 43.636719 165.449219 40.804688 163.402344 41.078125 C 160.289062 41.800781 157.574219 47.722656 159.125 50.398438 " fill-opacity="1" fill-rule="nonzero"/><path fill="#312f30" d="M 269.472656 312.871094 C 265.378906 314.089844 263.78125 318.132812 266.46875 320.453125 C 270.253906 323.726562 276.3125 320.511719 276.03125 316.484375 C 275.855469 313.898438 272.605469 312.109375 269.472656 312.871094 " fill-opacity="1" fill-rule="nonzero"/><path fill="#312f30" d="M 217.847656 106.90625 C 217.847656 106.90625 217.847656 106.90625 217.851562 106.90625 C 217.851562 106.90625 217.855469 106.90625 217.855469 106.90625 C 217.855469 106.90625 217.855469 106.90625 217.855469 106.902344 C 217.855469 106.90625 217.859375 106.902344 217.859375 106.902344 C 217.863281 106.902344 217.863281 106.902344 217.863281 106.902344 C 217.863281 106.902344 217.863281 106.898438 217.867188 106.898438 C 221.351562 105.769531 222.132812 102.25 221.808594 100.164062 C 221.277344 96.714844 217.90625 94.152344 214.875 94.882812 C 214.257812 95.078125 212.980469 95.488281 211.921875 97.144531 C 208.972656 101.753906 212.683594 107.867188 217.847656 106.90625 " fill-opacity="1" fill-rule="nonzero"/><path fill="#312f30" d="M 244.785156 157.683594 C 250.144531 161.726562 256.09375 156.816406 255.039062 151.078125 C 254.40625 147.65625 251.019531 144.515625 246.644531 145.414062 C 241.351562 147.167969 240.273438 154.277344 244.785156 157.683594 " fill-opacity="1" fill-rule="nonzero"/><path fill="#312f30" d="M 124.976562 22.101562 C 125.460938 22.253906 128.808594 20.011719 130.226562 19.042969 C 130.285156 19 136.15625 14.972656 136.316406 14.34375 C 135.179688 14.066406 124.902344 21.097656 124.976562 22.101562 " fill-opacity="1" fill-rule="nonzero"/><path fill="#312f30" d="M 160.394531 28.738281 C 158.050781 29.257812 154.460938 34.695312 155.382812 37.125 C 156.199219 39.277344 159.410156 36.496094 160.8125 33.121094 C 161.71875 30.941406 161.730469 28.601562 160.394531 28.738281 " fill-opacity="1" fill-rule="nonzero"/><path fill="#312f30" d="M 152.78125 17.46875 C 151.15625 17.511719 144.644531 23.652344 144.683594 25.644531 C 144.707031 26.914062 147.621094 24.769531 150.015625 22.144531 C 151.433594 20.589844 153.703125 17.621094 152.78125 17.46875 " fill-opacity="1" fill-rule="nonzero"/><path fill="#312f30" d="M 245.214844 368.261719 C 243.617188 367.738281 240.652344 367.300781 239.070312 367.492188 C 238.78125 367.539062 238.296875 367.617188 238.222656 367.851562 C 237.882812 368.925781 244.964844 369.75 246.261719 369.15625 C 246.785156 368.914062 246.0625 368.535156 245.214844 368.261719 " fill-opacity="1" fill-rule="nonzero"/><path fill="#312f30" d="M 106.214844 30.230469 C 106.226562 30.207031 106.246094 30.171875 106.261719 30.148438 C 105.582031 30.445312 97.21875 38.121094 96.78125 39.0625 C 96.9375 38.949219 96.9375 38.949219 100.390625 35.734375 C 104.808594 31.613281 105.859375 30.632812 106.214844 30.230469 " fill-opacity="1" fill-rule="nonzero"/><path fill="#312f30" d="M 113.148438 26.03125 C 118.585938 21.878906 118.996094 21.398438 119.296875 21.046875 C 118.714844 20.734375 109.367188 27.898438 109.292969 28.710938 C 109.382812 28.71875 109.601562 28.738281 113.148438 26.03125 " fill-opacity="1" fill-rule="nonzero"/><path fill="#312f30" d="M 147.445312 12.644531 C 147.675781 12.925781 149.109375 12.136719 152.570312 9.824219 C 153.300781 9.332031 156.960938 6.863281 157.128906 6.398438 C 157.121094 6.390625 157.105469 6.378906 157.097656 6.371094 C 156.410156 6.277344 147.582031 11.464844 147.445312 12.644531 " fill-opacity="1" fill-rule="nonzero"/><path fill="#312f30" d="M 289.046875 298.707031 C 289.050781 298.652344 288.777344 293.390625 282.96875 294.957031 C 276.28125 297.007812 279.175781 302.363281 279.808594 303.011719 C 281.96875 305.230469 288.746094 304.050781 289.046875 298.707031 " fill-opacity="1" fill-rule="nonzero"/><path fill="#312f30" d="M 161.507812 17.398438 C 159.730469 17.753906 155.710938 22.765625 155.925781 24.363281 C 156.089844 25.574219 158.382812 24.257812 160.304688 21.425781 C 160.769531 20.738281 163.015625 17.320312 161.507812 17.398438 " fill-opacity="1" fill-rule="nonzero"/><path fill="#312f30" d="M 248.484375 370.585938 C 245.503906 370.457031 244.167969 370.441406 243.1875 370.523438 C 242.683594 370.570312 242.664062 370.605469 242.636719 370.660156 C 243.300781 371.042969 249.542969 370.945312 250.445312 370.722656 C 250.390625 370.683594 250.363281 370.664062 248.484375 370.585938 " fill-opacity="1" fill-rule="nonzero"/><path fill="#312f30" d="M 288.601562 249.683594 C 289.496094 250.351562 291.949219 251.667969 295.445312 249.363281 C 296.589844 248.605469 298.4375 246.84375 297.964844 243.507812 C 297.34375 239.136719 293.832031 238.542969 291.015625 239.363281 C 285.335938 241.359375 285.921875 247.667969 288.601562 249.683594 " fill-opacity="1" fill-rule="nonzero"/><path fill="#312f30" d="M 279.804688 211.714844 C 282.589844 214.023438 290.355469 212.707031 289.578125 205.222656 C 289.570312 205.15625 288.574219 198.441406 282.050781 200.109375 C 275.082031 202.207031 277.46875 209.777344 279.804688 211.714844 " fill-opacity="1" fill-rule="nonzero"/><path fill="#312f30" d="M 269.515625 171.597656 C 270.050781 171.964844 272.890625 173.679688 276.128906 171.433594 C 277.542969 170.453125 279.085938 168.613281 278.398438 165.433594 C 277.511719 161.304688 274.558594 159.433594 270.699219 160.542969 C 265.035156 162.578125 266.3125 169.40625 269.515625 171.597656 " fill-opacity="1" fill-rule="nonzero"/><path fill="#312f30" d="M 235.007812 119.484375 C 238.234375 121.371094 244.015625 119.625 242.769531 113.820312 C 242.121094 110.808594 239.574219 108.175781 235.957031 108.957031 C 230.265625 110.554688 231.746094 117.582031 235.007812 119.484375 " fill-opacity="1" fill-rule="nonzero"/><path fill="#312f30" d="M 134.78125 12.371094 C 134.785156 12.355469 134.761719 12.339844 134.753906 12.328125 C 133.820312 12.355469 125.785156 17.265625 124.667969 18.726562 C 125.152344 18.660156 126.304688 18.011719 129.234375 16.152344 C 133.390625 13.523438 134.632812 12.671875 134.78125 12.371094 " fill-opacity="1" fill-rule="nonzero"/><path fill="#312f30" d="M 259.355469 358.566406 C 259.042969 358.636719 258.519531 358.761719 258.140625 359.023438 C 257.199219 359.6875 257.523438 361.0625 259.902344 361.609375 C 261.929688 362.074219 264.707031 361.324219 263.765625 359.796875 C 263.191406 358.859375 261.601562 358.117188 259.355469 358.566406 " fill-opacity="1" fill-rule="nonzero"/><path fill="#312f30" d="M 153.464844 13.316406 C 154.226562 13.039062 155.265625 12.511719 157.714844 10.550781 C 159.714844 8.945312 162.003906 7.011719 161.542969 6.898438 C 161.539062 6.898438 161.535156 6.898438 161.53125 6.898438 C 160.527344 6.953125 152.617188 12.488281 153.464844 13.316406 " fill-opacity="1" fill-rule="nonzero"/><path fill="#312f30" d="M 143.667969 11.425781 C 144.511719 11.191406 145.867188 10.488281 148.851562 8.738281 C 153.878906 5.789062 153.9375 5.617188 153.996094 5.457031 L 153.996094 5.453125 C 153.253906 5.351562 144.253906 10.253906 143.667969 11.425781 " fill-opacity="1" fill-rule="nonzero"/><path fill="#312f30" d="M 266.148438 349.148438 C 265.992188 349.183594 265.839844 349.222656 265.6875 349.273438 C 263.675781 349.894531 262.628906 351.953125 265.179688 353.203125 C 267.429688 354.308594 271.226562 352.976562 270.539062 350.824219 C 270.410156 350.425781 269.597656 348.46875 266.148438 349.148438 " fill-opacity="1" fill-rule="nonzero"/><path fill="#312f30" d="M 179.207031 46.015625 C 180.320312 47.457031 183.664062 47.003906 184.050781 42.464844 C 184.050781 42.425781 184.03125 38.417969 181.371094 38.792969 C 178.34375 39.441406 177.9375 44.378906 179.207031 46.015625 " fill-opacity="1" fill-rule="nonzero"/><path fill="#312f30" d="M 190.953125 58.550781 C 190.972656 58.5625 192.675781 59.976562 194.273438 58.847656 C 194.847656 58.445312 196.375 57.367188 196.207031 54.84375 C 196.195312 54.652344 195.855469 50.167969 192.382812 50.761719 C 188.984375 51.558594 188.902344 56.8125 190.953125 58.550781 " fill-opacity="1" fill-rule="nonzero"/><path fill="#312f30" d="M 275.652344 337.171875 C 272.273438 338.121094 272.125 340.773438 273.824219 342 C 275.722656 343.378906 280.398438 342.128906 280.011719 339.140625 C 279.773438 337.320312 278.105469 336.5625 275.652344 337.171875 " fill-opacity="1" fill-rule="nonzero"/><path fill="#312f30" d="M 258.039062 132.644531 C 260.640625 134.304688 266.421875 133.199219 265.425781 127.277344 C 265.261719 126.304688 263.425781 121.65625 258.660156 123.035156 C 253.164062 124.925781 255.761719 131.195312 258.039062 132.644531 " fill-opacity="1" fill-rule="nonzero"/><path fill="#312f30" d="M 297.703125 274.863281 C 292.144531 276.738281 293.5625 281.542969 294.445312 282.664062 C 296.515625 285.304688 302.902344 283.683594 303.234375 278.402344 C 303.289062 277.585938 302.488281 273.464844 297.703125 274.863281 " fill-opacity="1" fill-rule="nonzero"/><path fill="#312f30" d="M 117.109375 21.0625 C 121.527344 17.808594 121.527344 17.808594 121.796875 17.570312 C 121.824219 17.542969 121.859375 17.507812 121.875 17.476562 C 121.171875 17.777344 114.8125 22.519531 114.316406 23.113281 C 115.304688 22.507812 116.179688 21.746094 117.109375 21.0625 " fill-opacity="1" fill-rule="nonzero"/><path fill="#312f30" d="M 152.011719 4.320312 C 151.675781 4.136719 143.589844 8.09375 142.636719 9.144531 C 142.894531 9.222656 144.132812 8.613281 146.996094 7.121094 C 151.003906 5.035156 151.894531 4.535156 152.011719 4.320312 " fill-opacity="1" fill-rule="nonzero"/><path fill="#312f30" d="M 259.203125 366.953125 C 260.542969 366.769531 260.804688 366.417969 260.039062 365.859375 C 260.023438 365.847656 258.34375 364.804688 255.941406 365.230469 C 255.652344 365.285156 255.054688 365.410156 254.863281 365.664062 C 254.40625 366.277344 256.851562 367.285156 259.203125 366.953125 " fill-opacity="1" fill-rule="nonzero"/><path fill="#312f30" d="M 175.75 30.761719 C 176.042969 29.148438 176.042969 27.265625 174.390625 27.460938 C 171.882812 27.941406 170.886719 32.734375 171.796875 33.917969 C 172.65625 35.027344 175.125 34.226562 175.75 30.761719 " fill-opacity="1" fill-rule="nonzero"/><path fill="#312f30" d="M 291.792969 324.882812 C 291.753906 323.679688 291.171875 321.785156 287.746094 322.617188 C 282.742188 324.160156 284.792969 327.636719 285.25 328.054688 C 286.917969 329.5625 291.90625 328.171875 291.792969 324.882812 " fill-opacity="1" fill-rule="nonzero"/><path fill="#312f30" d="M 164.695312 10.105469 C 164.789062 10.007812 164.921875 9.875 165.019531 9.773438 C 167.320312 7.382812 167.183594 7.113281 166.878906 7.121094 C 165.691406 7.304688 161.105469 11.554688 161.035156 12.53125 C 161.007812 12.972656 161.882812 12.972656 164.695312 10.105469 " fill-opacity="1" fill-rule="nonzero"/><path fill="#312f30" d="M 206.375 71.167969 C 208.53125 72.601562 212.640625 71.242188 211.75 66.929688 C 211.285156 64.683594 209.820312 62.515625 207.109375 63.179688 C 202.980469 64.414062 204.410156 69.867188 206.375 71.167969 " fill-opacity="1" fill-rule="nonzero"/><path fill="#312f30" d="M 224.910156 83.601562 C 227.496094 85.121094 231.425781 83.238281 230.242188 79.253906 C 229.761719 77.640625 228.46875 75.039062 225.207031 75.785156 C 220.992188 76.957031 222.792969 82.359375 224.910156 83.601562 " fill-opacity="1" fill-rule="nonzero"/><path fill="#312f30" d="M 294.003906 184.496094 C 296.324219 186.621094 302.261719 185.917969 301.746094 179.234375 C 301.601562 177.347656 299.320312 175.8125 299.296875 175.796875 C 297.835938 174.886719 296.453125 175.261719 295.710938 175.464844 C 290.597656 177.152344 292.042969 182.699219 294.003906 184.496094 " fill-opacity="1" fill-rule="nonzero"/><path fill="#312f30" d="M 256.007812 369.03125 C 255.804688 369.066406 255.382812 369.136719 255.390625 369.246094 C 255.40625 369.398438 256.382812 369.574219 257.929688 369.582031 C 258.6875 369.589844 260.472656 369.484375 260.558594 369.285156 C 260.507812 369.238281 260.421875 369.195312 259.828125 369.097656 C 259.804688 369.097656 257.660156 368.78125 256.007812 369.03125 " fill-opacity="1" fill-rule="nonzero"/><path fill="#312f30" d="M 168.5 22.085938 C 168.601562 22.382812 168.945312 22.988281 169.878906 22.296875 C 170.398438 21.914062 171.160156 21.21875 171.796875 19.640625 C 172.253906 18.507812 172.839844 16.628906 171.671875 16.714844 C 170.109375 16.964844 168.054688 20.835938 168.5 22.085938 " fill-opacity="1" fill-rule="nonzero"/><path fill="#312f30" d="M 304.101562 224.445312 C 305.382812 225.339844 307.925781 225.382812 308.820312 224.757812 C 309.652344 224.175781 312.195312 222.402344 311.675781 219.15625 C 311.257812 216.542969 309.335938 214.390625 305.976562 215.464844 C 300.675781 217.421875 302.203125 223.113281 304.101562 224.445312 " fill-opacity="1" fill-rule="nonzero"/><path fill="#312f30" d="M 130.722656 12.800781 C 130.765625 12.777344 134.945312 10.335938 135.414062 9.894531 C 135.410156 9.882812 135.414062 9.863281 135.414062 9.851562 C 134.726562 9.96875 128.402344 13.636719 127.566406 14.511719 C 127.566406 14.527344 127.570312 14.542969 127.574219 14.550781 C 127.839844 14.480469 128.605469 14.039062 130.722656 12.800781 " fill-opacity="1" fill-rule="nonzero"/><path fill="#312f30" d="M 313.132812 253.152344 C 309.1875 254.453125 308.820312 258.535156 310.6875 260.40625 C 312.757812 262.488281 317.691406 260.261719 317.625 256.433594 C 317.613281 255.675781 317.332031 251.957031 313.132812 253.152344 " fill-opacity="1" fill-rule="nonzero"/><path fill="#312f30" d="M 305.226562 308.078125 C 305.238281 307.09375 304.902344 304.902344 301.625 305.765625 C 297.796875 306.925781 297.890625 310.183594 298.960938 311.308594 C 300.585938 313.023438 305.199219 311.144531 305.226562 308.078125 " fill-opacity="1" fill-rule="nonzero"/><path fill="#312f30" d="M 282.558594 145.222656 C 285.25 146.933594 289.902344 144.835938 288.730469 140.601562 C 288.425781 139.507812 287.128906 136.027344 283.148438 137.136719 C 278.660156 138.628906 280.339844 143.8125 282.558594 145.222656 " fill-opacity="1" fill-rule="nonzero"/><path fill="#312f30" d="M 245.914062 95.699219 C 247.851562 96.929688 252.066406 96.15625 251.046875 91.863281 C 251.039062 91.820312 249.84375 87.542969 246.039062 88.660156 C 241.855469 90.09375 244.417969 94.75 245.914062 95.699219 " fill-opacity="1" fill-rule="nonzero"/><path fill="#312f30" d="M 172.21875 9.386719 C 172.398438 9.136719 173.957031 6.988281 173.195312 6.988281 C 172.074219 7.222656 169.71875 10.449219 169.757812 11.164062 C 169.757812 11.175781 170.089844 12.28125 172.21875 9.386719 " fill-opacity="1" fill-rule="nonzero"/><path fill="#312f30" d="M 273.335938 362.144531 C 273.21875 362.171875 273.101562 362.203125 272.984375 362.242188 C 271.917969 362.605469 272.183594 363.160156 272.699219 363.421875 C 273.546875 363.847656 275.632812 363.5 275.335938 362.589844 C 275.332031 362.582031 274.886719 361.828125 273.335938 362.144531 " fill-opacity="1" fill-rule="nonzero"/><path fill="#312f30" d="M 316.527344 286.96875 C 314.492188 287.71875 313.054688 290.25 314.378906 291.816406 C 315.722656 293.40625 319.355469 291.925781 319.621094 289.0625 C 319.820312 286.875 318.210938 286.4375 316.527344 286.96875 " fill-opacity="1" fill-rule="nonzero"/><path fill="#312f30" d="M 269.265625 107.609375 C 271.726562 108.832031 274.488281 106.894531 273.335938 103.902344 C 272.585938 101.953125 270.863281 101.035156 269.046875 101.617188 C 265.738281 102.863281 267.476562 106.722656 269.265625 107.609375 " fill-opacity="1" fill-rule="nonzero"/><path fill="#312f30" d="M 280.371094 354.546875 C 278.792969 354.945312 278.542969 355.9375 279.0625 356.445312 C 279.96875 357.328125 282.464844 356.546875 282.402344 355.40625 C 282.378906 354.921875 281.921875 354.203125 280.371094 354.546875 " fill-opacity="1" fill-rule="nonzero"/><path fill="#312f30" d="M 319.140625 197.195312 C 320.683594 198.347656 324.316406 197.035156 323.785156 193.695312 C 323.519531 192.027344 322.65625 190.207031 320.050781 191.015625 C 316.664062 192.222656 317.691406 196.109375 319.140625 197.195312 " fill-opacity="1" fill-rule="nonzero"/><path fill="#312f30" d="M 328.355469 230.210938 C 325.097656 231.371094 325.851562 234.9375 326.957031 235.738281 C 326.96875 235.75 328.382812 236.699219 330.121094 235.414062 C 330.511719 235.125 331.699219 234.25 331.511719 232.367188 C 331.398438 231.226562 330.84375 229.429688 328.355469 230.210938 " fill-opacity="1" fill-rule="nonzero"/><path fill="#312f30" d="M 290.140625 344.28125 C 287.71875 345.007812 288.664062 346.648438 288.675781 346.664062 C 289.300781 347.449219 291.980469 346.847656 292.125 345.257812 C 292.167969 344.792969 292.0625 343.769531 290.140625 344.28125 " fill-opacity="1" fill-rule="nonzero"/><path fill="#312f30" d="M 215.316406 51.261719 C 216.394531 51.875 218.640625 51.257812 217.890625 48.914062 C 217.652344 48.164062 216.910156 46.472656 215.183594 46.9375 C 212.847656 47.691406 214.285156 50.671875 215.316406 51.261719 " fill-opacity="1" fill-rule="nonzero"/><path fill="#312f30" d="M 271.398438 366.9375 C 271.195312 366.839844 270.609375 366.636719 269.589844 366.847656 C 269.421875 366.878906 269.082031 366.957031 269.019531 367.070312 C 268.863281 367.363281 270.429688 367.539062 271.3125 367.234375 C 271.589844 367.140625 271.617188 367.042969 271.398438 366.9375 " fill-opacity="1" fill-rule="nonzero"/><path fill="#312f30" d="M 200.164062 40.132812 C 200.9375 40.789062 203.0625 40.714844 202.761719 38.152344 C 202.757812 38.125 202.339844 35.617188 200.460938 36.066406 C 198.621094 36.621094 199.277344 39.375 200.164062 40.132812 " fill-opacity="1" fill-rule="nonzero"/><path fill="#312f30" d="M 183.585938 17.542969 C 183.679688 16.949219 183.800781 15.582031 182.886719 15.710938 C 181.710938 15.964844 181.433594 18.378906 181.890625 18.914062 C 182.3125 19.410156 183.339844 19.097656 183.585938 17.542969 " fill-opacity="1" fill-rule="nonzero"/><path fill="#312f30" d="M 189.023438 29.378906 C 189.257812 29.578125 189.878906 29.964844 190.601562 29.308594 C 190.90625 29.03125 191.257812 28.480469 191.171875 27.433594 C 191.132812 26.925781 190.90625 25.296875 189.632812 25.574219 C 187.976562 26.042969 188.300781 28.769531 189.023438 29.378906 " fill-opacity="1" fill-rule="nonzero"/><path fill="#312f30" d="M 307.75 157.359375 C 309.074219 158.148438 312.652344 157.535156 311.859375 153.863281 C 311.851562 153.832031 311.039062 150.707031 308.125 151.601562 C 304.8125 152.785156 306.386719 156.546875 307.75 157.359375 " fill-opacity="1" fill-rule="nonzero"/><path fill="#312f30" d="M 233.785156 62.234375 C 235.054688 62.714844 235.394531 62.339844 235.824219 61.863281 C 236.035156 61.628906 236.476562 60.953125 235.992188 59.785156 C 235.457031 58.503906 234.292969 57.835938 233.15625 58.164062 C 233.101562 58.183594 233.027344 58.207031 232.976562 58.226562 C 231.464844 58.871094 232.011719 61.566406 233.785156 62.234375 " fill-opacity="1" fill-rule="nonzero"/><path fill="#312f30" d="M 302.554688 331.210938 C 300.859375 331.726562 300.335938 333.128906 300.8125 333.824219 C 301.261719 334.484375 302.605469 334.152344 302.621094 334.144531 C 302.628906 334.140625 304.042969 333.390625 304.246094 332.429688 C 304.34375 331.972656 304.238281 330.773438 302.554688 331.210938 " fill-opacity="1" fill-rule="nonzero"/><path fill="#312f30" d="M 316.628906 315.839844 C 314.90625 316.449219 315.027344 317.921875 315.253906 318.230469 C 315.738281 318.875 317.683594 318.277344 317.980469 316.898438 C 318.035156 316.628906 318.242188 315.324219 316.628906 315.839844 " fill-opacity="1" fill-rule="nonzero"/><g clip-path="url(#440204be4e)"><path fill="#312f30" d="M 332.253906 266.375 C 330.5 267 330.136719 269.097656 330.921875 269.964844 C 331.785156 270.921875 334.269531 269.695312 334.347656 267.863281 C 334.382812 267.046875 334.15625 265.761719 332.253906 266.375 " fill-opacity="1" fill-rule="nonzero"/></g><path fill="#312f30" d="M 293.777344 119.003906 C 295.03125 119.632812 297.308594 118.636719 296.480469 116.515625 C 296.164062 115.691406 295.378906 114.386719 293.714844 114.898438 C 291.273438 115.777344 292.703125 118.464844 293.777344 119.003906 " fill-opacity="1" fill-rule="nonzero"/><path fill="#312f30" d="M 254.675781 72.863281 C 254.765625 72.894531 255.566406 73.191406 256.105469 72.675781 C 256.546875 72.25 256.652344 71.75 256.417969 71.1875 C 256.414062 71.167969 255.699219 69.472656 254.242188 69.867188 C 254.171875 69.890625 254.101562 69.917969 254.03125 69.949219 C 252.667969 70.589844 253.652344 72.457031 254.675781 72.863281 " fill-opacity="1" fill-rule="nonzero"/></svg>